# AST/ASF file generated using VICON BodyLanguage
# -----------------------------------------------
:version 1.10
:name VICON
:units
  mass 1.0
  length 0.45
  angle deg
:documentation
   .ast/.asf automatically generated from VICON data using
   VICON BodyBuilder and BodyLanguage model FoxedUp or BRILLIANT.MOD
:root
   order TX TY TZ RX RY RZ
   axis XYZ
   position 0 0 0  
   orientation 0 0 0 
:bonedata
  begin
     id 1 
     name lhipjoint
     direction 0.677091 -0.635792 0.370561 
     length 2.74323 
     axis 0 0 0  XYZ
  end
  begin
     id 2 
     name lfemur
     direction 0.34202 -0.939693 0  
     length 7.44995  
     axis 0 0 20  XYZ
    dof rx ry rz
    limits (-160.0 20.0)
           (-70.0 70.0)
           (-60.0 70.0)
  end
  begin
     id 3 
     name ltibia
     direction 0.34202 -0.939693 0   
     length 7.34467   
     axis 0 0 20   XYZ
    dof rx
    limits (-10.0 170.0)
  end
  begin
     id 4 
     name lfoot
     direction 0.101953 -0.280114 0.954537   
     length 1.72105   
     axis -90 7.62852e-016 20   XYZ
    dof rx rz
    limits (-45.0 90.0)
           (-70.0 20.0)
  end
  begin
     id 5 
     name ltoes
     direction 1.53537e-011 -4.21915e-011 1   
     length 0.865872   
     axis -90 7.62852e-016 20   XYZ
    dof rx
    limits (-90.0 20.0)
  end
  begin
     id 6 
     name rhipjoint
     direction -0.695735 -0.620586 0.361699   
     length 2.81045  
     axis 0 0 0  XYZ 
  end
  begin
     id 7 
     name rfemur
     direction -0.34202 -0.939693 0   
     length 7.29387   
     axis 0 0 -20   XYZ
    dof rx ry rz
    limits (-160.0 20.0)
           (-70.0 70.0)
           (-70.0 60.0)
  end
  begin
     id 8 
     name rtibia
     direction -0.34202 -0.939693 0   
     length 7.44935   
     axis 0 0 -20   XYZ
    dof rx
    limits (-10.0 170.0)
 end
 begin
     id 9 
     name rfoot
     direction -0.104163 -0.286184 0.952496   
     length 1.77731  
     axis -90 -7.62852e-016 -20   XYZ
    dof rx rz
    limits (-45.0 90.0)
           (-20.0 70.0)
  end
  begin
     id 10 
     name rtoes
     direction -1.5355e-011 -4.21888e-011 1   
     length 0.892424   
     axis -90 -7.62852e-016 -20   XYZ
    dof rx
    limits (-90.0 20.0)
  end
  begin
     id 11 
     name lowerback
     direction 0.0100202 0.997226 -0.0737589   
     length 2.16892   
     axis 0 0 0   XYZ
    dof rx ry rz
    limits (-20.0 45.0)
           (-30.0 30.0)
           (-30.0 30.0)
  end
  begin
     id 12 
     name upperback
     direction 0.00432398 0.999988 -0.00215019   
     length 2.17326   
     axis 0 0 0   XYZ
    dof rx ry rz
    limits (-20.0 45.0)
           (-30.0 30.0)
           (-30.0 30.0)
  end
  begin
     id 13 
     name thorax
     direction -0.00195047 0.999485 0.0320434   
     length 2.18139   
     axis 0 0 0   XYZ
    dof rx ry rz
    limits (-20.0 45.0)
           (-30.0 30.0)
           (-30.0 30.0)
  end
  begin
     id 14 
     name lowerneck
     direction 0.00782762 0.986241 0.165128   
     length 1.88415   
     axis 0 0 0   XYZ
    dof rx ry rz
    limits (-20.0 45.0)
           (-30.0 30.0)
           (-30.0 30.0)
  end
  begin
     id 15 
     name upperneck
     direction 0.00988667 0.981098 -0.193258   
     length 1.9242   
     axis 0 0 0   XYZ
    dof rx ry rz
    limits (-20.0 45.0)
           (-30.0 30.0)
           (-30.0 30.0)
  end
  begin
     id 16
     name head
     direction 0.00252199 0.996513 -0.0833958  
     length 1.93887  
     axis 0 0 0   XYZ
    dof rx ry rz
    limits (-20.0 45.0)
           (-30.0 30.0)
           (-30.0 30.0)
  end
  begin
     id 17 
     name lclavicle
     direction 0.929492 0.368193 -0.0218667  
     length 3.5955  
     axis 0 0 0   XYZ
    dof ry rz
    limits (-20.0 10.0)
           (0.0 20.0)
  end
  begin
     id 18 
     name lhumerus
     direction 1 -4.48972e-011 1.41911e-027   
     length 5.2795   
     axis 180 -30 -90   XYZ
    dof rx ry rz
    limits (-60.0 90.0)
           (-90.0 90.0)
           (-90.0 90.0)
  end
  begin
     id 19
     name lradius
     direction 1 -4.48963e-011 7.05772e-027   
     length 3.53504   
     axis 180 -30 -90   XYZ
    dof rx
    limits (-10.0 170.0)
  end
  begin
     id 20
     name lwrist
     direction 1 -4.48957e-011 9.54866e-027   
     length 1.76752   
     axis -7.69462e-015 90 90   XYZ
    dof ry
    limits (-180.0 0.0)
 end
  begin
     id 21 
     name lhand
     direction 1 -4.48979e-011 1.90973e-026   
     length 0.667948   
     axis -1.21857e-014 90 90   XYZ
    dof rx rz
    limits (-90.0 90.0)
           (-45.0 45.0)
  end
  begin
     id 22 
     name lfingers
     direction 1 -4.48987e-011 3.81946e-026   
     length 0.538517   
     axis -2.43714e-014 90 90   XYZ
    dof rx
    limits (0.0 90.0)
  end
  begin
     id 23
     name lthumb
     direction 0.707107 -6.34962e-011 0.707107   
     length 0.773206   
     axis -90 45 2.85299e-015   XYZ
    dof rx rz
    limits (-45.0 45.0)
           (-45.0 45.0)
  end
  begin
     id 24 
     name rclavicle
     direction -0.898763 0.414256 -0.143584   
     length 3.5176  
     axis 0 0 0   XYZ 
    dof ry rz
    limits (-10.0 20.0)
           (-20.0 0.0)
  end
  begin
     id 25 
     name rhumerus
     direction -1 -4.48971e-011 1.129e-027  
     length 5.25035   
     axis 180 30 90   XYZ
    dof rx ry rz
    limits (-90.0 60.0)
           (-90.0 90.0)
           (-90.0 90.0)
  end
  begin
     id 26 
     name rradius
     direction -1 -4.48955e-011 6.34664e-027   
     length 3.58884   
     axis 180 30 90   XYZ
    dof rx
    limits (-10.0 170.0)
  end
  begin
     id 27 
     name rwrist
     direction -1 -4.48966e-011 9.54866e-027   
     length 1.79442   
     axis -7.69462e-015 -90 -90   XYZ
    dof ry
    limits (-180.0 0.0)
  end
  begin
     id 28
     name rhand
     direction -1 -4.48973e-011 1.90973e-026   
     length 0.779235   
     axis -1.21857e-014 -90 -90   XYZ
    dof rx rz
    limits (-90.0 90.0)
           (-45.0 45.0)
  end
  begin
     id 29
     name rfingers
     direction -1 -4.48984e-011 3.81946e-026   
     length 0.62824   
     axis -2.43714e-014 -90 -90   XYZ
    dof rx
    limits (0.0 90.0)
  end
  begin
     id 30
     name rthumb
     direction -0.707107 -6.34968e-011 0.707107   
     length 0.90203   
     axis -90 -45 -2.85299e-015   XYZ
    dof rx rz
    limits (-45.0 45.0)
           (-45.0 45.0)
  end
:hierarchy
  begin
    root lhipjoint rhipjoint lowerback
    lhipjoint lfemur
    lfemur ltibia
    ltibia lfoot
    lfoot ltoes
    rhipjoint rfemur
    rfemur rtibia
    rtibia rfoot
    rfoot rtoes
    lowerback upperback
    upperback thorax
    thorax lowerneck lclavicle rclavicle
    lowerneck upperneck
    upperneck head
    lclavicle lhumerus
    lhumerus lradius
    lradius lwrist
    lwrist lhand lthumb
    lhand lfingers
    rclavicle rhumerus
    rhumerus rradius
    rradius rwrist
    rwrist rhand rthumb
    rhand rfingers
  end

#!OML:ASF I:\Random Stuff\random\construction\7_22_03\Session 2\subj1.ASF
:FULLY-SPECIFIED
:DEGREES
181
root -3.73789 17.8261 1.3006 -146.971 86.2159 -152.941
lowerback 3.11312 0.0963671 1.66992
upperback -2.85016 0.396362 2.86045
thorax -4.70335 0.217467 1.99321
lowerneck -20.6818 -5.62526 -3.30678
upperneck 28.1567 -7.69535 3.47848
head 13.1759 -3.09598 0.608884
rclavicle 1.26725e-015 -9.54166e-015
rhumerus -16.1202 -13.2029 -74.5786
rradius 71.5985
rwrist -17.6491
rhand -45.6359 13.7671
rfingers 7.12502
rthumb -18.3955 -15.3831
lclavicle 1.26725e-015 -9.54166e-015
lhumerus -37.3685 -8.37003 93.8209
lradius 36.3019
lwrist 27.895
lhand -19.9083 56.897
lfingers 7.12502
lthumb 6.42836 446.779
rfemur 1.61741 2.97151 20.884
rtibia -1.43125e-014
rfoot -2.25825 -21.2606
rtoes -7.30076
lfemur -6.84755 -17.8324 -11.4961
ltibia 11.089
lfoot -8.42259 16.0216
ltoes -33.0297
182
root -3.73745 17.8255 1.29097 -144.566 86.389 -150.494
lowerback 2.9511 0.0984182 1.63923
upperback -2.97712 0.393145 2.77997
thorax -4.74283 0.215693 1.92781
lowerneck -20.8001 -5.40176 -3.10118
upperneck 28.4438 -7.43816 3.44768
head 13.2982 -2.95373 0.606341
rclavicle -2.88238e-015 -1.19271e-014
rhumerus -15.9498 -11.5372 -74.9598
rradius 73.2714
rwrist -18.8986
rhand -45.257 13.0059
rfingers 7.12502
rthumb -18.031 -16.1783
lclavicle -2.88238e-015 -1.19271e-014
lhumerus -37.4386 -8.33867 93.7225
lradius 36.261
lwrist 27.9416
lhand -19.6606 56.6246
lfingers 7.12502
lthumb 6.66745 446.5
rfemur 1.66144 3.20211 20.8949
rtibia 1.43125e-014
rfoot -2.46163 -21.2539
rtoes -6.76872
lfemur -6.75361 -18.1757 -11.5066
ltibia 11.1823
lfoot -8.58617 16.5747
ltoes -32.6577
183
root -3.73995 17.8253 1.2788 -139.977 86.6681 -145.884
lowerback 2.87957 0.180043 1.67369
upperback -3.15401 0.504925 2.68526
thorax -4.88797 0.268717 1.80339
lowerneck -20.88 -5.24929 -2.93704
upperneck 28.8098 -7.26866 3.41401
head 13.4525 -2.85174 0.595309
rclavicle -8.19987e-016 -2.46493e-014
rhumerus -15.8047 -10.2342 -75.2976
rradius 74.7477
rwrist -19.5996
rhand -44.2463 11.9921
rfingers 7.12502
rthumb -17.0583 -17.279
lclavicle -8.19987e-016 -2.46493e-014
lhumerus -37.5287 -8.33203 93.6679
lradius 36.1176
lwrist 27.8935
lhand -19.6303 56.7751
lfingers 7.12502
lthumb 6.69669 446.649
rfemur 1.63435 3.59182 20.908
rtibia -3.18055e-015
rfoot -2.58592 -21.2458
rtoes -6.17929
lfemur -6.68167 -18.5324 -11.5103
ltibia 11.3397
lfoot -8.78259 17.3024
ltoes -32.5147
184
root -3.74308 17.8242 1.2682 -134.935 86.8649 -140.802
lowerback 2.84935 0.256562 1.73357
upperback -3.2837 0.610542 2.59488
thorax -5.0067 0.317353 1.6692
lowerneck -21.0601 -5.10215 -2.72082
upperneck 29.1104 -7.11082 3.3341
head 13.5977 -2.75727 0.552918
rclavicle 3.47252e-015 1.66979e-014
rhumerus -15.5849 -9.05929 -75.6952
rradius 76.0642
rwrist -20.1532
rhand -43.2275 11.1282
rfingers 7.12502
rthumb -16.0775 -18.2248
lclavicle 3.47252e-015 1.66979e-014
lhumerus -37.4824 -8.31347 93.6166
lradius 35.9509
lwrist 27.8777
lhand -19.8461 56.9468
lfingers 7.12502
lthumb 6.48835 446.827
rfemur 1.64112 3.92886 20.9588
rtibia -1.59028e-015
rfoot -2.72182 -21.2324
rtoes -5.38462
lfemur -6.65276 -18.8035 -11.4836
ltibia 11.5755
lfoot -8.98763 17.9068
ltoes -32.5647
185
root -3.74509 17.8228 1.25899 -131.457 86.9216 -137.259
lowerback 2.73438 0.277026 1.74986
upperback -3.34824 0.634755 2.53725
thorax -5.00802 0.327831 1.59911
lowerneck -21.2576 -4.93974 -2.56617
upperneck 29.3931 -6.926 3.30837
head 13.7451 -2.65077 0.546874
rclavicle -1.79217e-015 -1.43125e-014
rhumerus -15.4116 -7.8256 -76.0805
rradius 77.4512
rwrist -20.5583
rhand -42.3969 9.96467
rfingers 7.12502
rthumb -15.2775 -19.4511
lclavicle -1.79217e-015 -1.43125e-014
lhumerus -37.3644 -8.26607 93.5819
lradius 35.8065
lwrist 27.87
lhand -20.012 57.0091
lfingers 7.12502
lthumb 6.3282 446.895
rfemur 1.71838 4.10613 21.035
rtibia -3.18055e-015
rfoot -2.9047 -21.2252
rtoes -4.67279
lfemur -6.67557 -19.0183 -11.4411
ltibia 11.8353
lfoot -9.13545 18.323
ltoes -32.7338
186
root -3.74446 17.8208 1.24867 -128.474 86.9725 -134.198
lowerback 2.57071 0.296546 1.74734
upperback -3.40099 0.654142 2.47246
thorax -4.96913 0.336488 1.53268
lowerneck -21.4399 -4.79984 -2.41245
upperneck 29.7538 -6.76512 3.2563
head 13.9241 -2.55554 0.527243
rclavicle -1.01365e-014 3.18055e-014
rhumerus -15.2246 -6.64935 -76.4512
rradius 78.7911
rwrist -20.6324
rhand -41.53 8.52587
rfingers 7.12502
rthumb -14.4423 -20.9516
lclavicle -1.01365e-014 3.18055e-014
lhumerus -37.3208 -8.23488 93.5418
lradius 35.6722
lwrist 27.8164
lhand -20.0039 56.954
lfingers 7.12502
lthumb 6.33606 446.839
rfemur 1.8118 4.26196 21.0864
rtibia 1.74931e-014
rfoot -2.94838 -21.239
rtoes -5.08599
lfemur -6.68368 -19.319 -11.4384
ltibia 12.0872
lfoot -9.18732 18.819
ltoes -33.1284
187
root -3.74319 17.8168 1.23903 -125.357 87.0648 -131.008
lowerback 2.4187 0.349262 1.73362
upperback -3.45688 0.715142 2.36217
thorax -4.94009 0.364913 1.42267
lowerneck -21.4901 -4.66953 -2.15154
upperneck 29.978 -6.64208 3.16389
head 14.0123 -2.47593 0.469343
rclavicle 8.38623e-017 -1.35174e-014
rhumerus -15.0756 -5.54632 -76.8709
rradius 80.0083
rwrist -20.6953
rhand -40.649 7.30434
rfingers 7.12502
rthumb -13.5934 -22.2319
lclavicle 8.38623e-017 -1.35174e-014
lhumerus -37.3182 -8.31089 93.4691
lradius 35.5527
lwrist 27.8241
lhand -19.8932 56.8632
lfingers 7.12502
lthumb 6.44291 446.745
rfemur 1.88926 4.44823 21.0959
rtibia -4.77083e-015
rfoot -2.92314 -21.2575
rtoes -5.89702
lfemur -6.65903 -19.6337 -11.4795
ltibia 12.3519
lfoot -9.35708 19.3126
ltoes -33.2691
188
root -3.74417 17.8118 1.23013 -123.365 87.0935 -128.908
lowerback 2.32974 0.400223 1.74043
upperback -3.49814 0.776368 2.25433
thorax -4.93133 0.392539 1.30361
lowerneck -21.4684 -4.56008 -1.99741
upperneck 30.1142 -6.54798 3.19205
head 14.0589 -2.40708 0.473557
rclavicle 2.57799e-015 -3.57812e-015
rhumerus -14.9923 -4.42938 -77.2452
rradius 81.1363
rwrist -21.1645
rhand -40.0835 6.64302
rfingers 7.12502
rthumb -13.0483 -22.9288
lclavicle 2.57799e-015 -3.57812e-015
lhumerus -37.2282 -8.37197 93.4344
lradius 35.3504
lwrist 27.7996
lhand -19.8159 56.8508
lfingers 7.12502
lthumb 6.51759 446.731
rfemur 2.01676 4.5504 21.1223
rtibia -1.11319e-014
rfoot -3.0148 -21.276
rtoes -5.7566
lfemur -6.60696 -19.8274 -11.5111
ltibia 12.6039
lfoot -9.64014 19.555
ltoes -33.1728
189
root -3.7486 17.8068 1.21851 -123.022 86.9904 -128.407
lowerback 2.34866 0.397415 1.82423
upperback -3.51758 0.7746 2.19302
thorax -4.96048 0.386896 1.19318
lowerneck -21.6188 -4.46865 -2.01385
upperneck 30.3666 -6.44303 3.28852
head 14.2038 -2.33799 0.532841
rclavicle -8.2185e-015 -2.94201e-014
rhumerus -14.7223 -3.10358 -77.5291
rradius 81.9884
rwrist -22.3685
rhand -40.0201 7.13328
rfingers 7.12502
rthumb -12.9872 -22.4425
lclavicle -8.2185e-015 -2.94201e-014
lhumerus -37.0869 -8.24305 93.4015
lradius 35.0814
lwrist 27.4587
lhand -19.6347 56.9504
lfingers 7.12502
lthumb 6.69246 446.825
rfemur 2.21493 4.51229 21.212
rtibia -1.59028e-015
rfoot -3.16274 -21.307
rtoes -5.36142
lfemur -6.54062 -20.0028 -11.486
ltibia 12.8207
lfoot -9.82004 19.6383
ltoes -33.1876
190
root -3.75595 17.8033 1.20404 -122.205 86.8751 -127.473
lowerback 2.36828 0.391418 1.94864
upperback -3.5205 0.771637 2.15989
thorax -4.9728 0.379923 1.08926
lowerneck -21.7962 -4.33986 -2.03207
upperneck 30.5306 -6.2803 3.37821
head 14.3141 -2.24917 0.600204
rclavicle 5.77718e-015 -2.62396e-014
rhumerus -14.3684 -1.58493 -77.7499
rradius 82.6817
rwrist -23.9377
rhand -40.2035 8.52162
rfingers 7.12502
rthumb -13.164 -21.0428
lclavicle 5.77718e-015 -2.62396e-014
lhumerus -36.9863 -8.14714 93.3848
lradius 34.936
lwrist 27.1043
lhand -19.1832 57.1573
lfingers 7.12502
lthumb 7.12836 447.017
rfemur 2.34672 4.48932 21.3137
rtibia -4.77083e-015
rfoot -3.08408 -21.3049
rtoes -6.0031
lfemur -6.5332 -20.2103 -11.4278
ltibia 13.0494
lfoot -9.93425 19.7879
ltoes -33.2804
191
root -3.76231 17.8011 1.19474 -119.108 86.8764 -124.309
lowerback 2.31269 0.44831 1.97581
upperback -3.49356 0.845484 2.15173
thorax -4.91281 0.415631 1.06107
lowerneck -21.937 -4.19794 -2.02869
upperneck 30.5943 -6.08664 3.41362
head 14.3677 -2.15727 0.648335
rclavicle 3.22404e-015 4.53229e-014
rhumerus -13.9982 -0.148672 -78.0281
rradius 83.3101
rwrist -24.9514
rhand -40.6733 9.67163
rfingers 7.12502
rthumb -13.6168 -19.863
lclavicle 3.22404e-015 4.53229e-014
lhumerus -36.9372 -8.30274 93.5226
lradius 34.9721
lwrist 27.332
lhand -19.0798 57.3252
lfingers 7.12502
lthumb 7.22811 447.182
rfemur 2.38559 4.63649 21.4002
rtibia 0
rfoot -2.71885 -21.2702
rtoes -7.76498
lfemur -6.5475 -20.2678 -11.3888
ltibia 13.3045
lfoot -10.0954 19.9679
ltoes -33.3506
192
root -3.76763 17.7992 1.19005 -114.967 86.8993 -120.088
lowerback 2.25078 0.511575 1.95176
upperback -3.45018 0.925291 2.16202
thorax -4.83301 0.456639 1.08051
lowerneck -22.0695 -4.04171 -1.89754
upperneck 30.6412 -5.83311 3.1919
head 14.3935 -2.06432 0.581723
rclavicle -1.54928e-014 -1.63003e-014
rhumerus -13.5207 1.18466 -78.4319
rradius 83.7401
rwrist -25.1928
rhand -41.4409 10.2972
rfingers 7.12502
rthumb -14.3564 -19.1864
lclavicle -1.54928e-014 -1.63003e-014
lhumerus -36.9776 -8.58509 93.7502
lradius 35.1013
lwrist 27.9258
lhand -19.5774 57.3683
lfingers 7.12502
lthumb 6.74775 447.241
rfemur 2.4278 4.84882 21.5008
rtibia 1.11319e-014
rfoot -2.49163 -21.2673
rtoes -8.72494
lfemur -6.51393 -20.1818 -11.3442
ltibia 13.5207
lfoot -10.2576 20.0602
ltoes -33.2816
